<?xml version="1.0" encoding="iso-8859-1"?>
<!-- Generator: Adobe Illustrator 16.0.0, SVG Export Plug-In . SVG Version: 6.00 Build 0)  -->
<!DOCTYPE svg PUBLIC "-//W3C//DTD SVG 1.1//EN" "http://www.w3.org/Graphics/SVG/1.1/DTD/svg11.dtd">
<svg version="1.1" id="Capa_1" xmlns="http://www.w3.org/2000/svg" xmlns:xlink="http://www.w3.org/1999/xlink" x="0px" y="0px"
	 width="588.591px" height="588.592px" viewBox="0 0 588.591 588.592" style="enable-background:new 0 0 588.591 588.592;"
	 xml:space="preserve">
<g>
	<g>
		<path style="fill: #dddddd;" d="M485.002,0c-4.52,0-9.195,2.169-12.203,5.667c-2.824,3.28-4.015,7.509-3.354,11.906
			c20.03,132.859-44.254,268.971-159.965,338.706c-0.569,0.34-1.107,0.715-1.634,1.135c-3.696-0.939-7.537-1.414-11.429-1.414
			c-0.726,0-1.455,0.016-2.051,0.053c-4.697-0.236-9.235,0.248-13.62,1.361c-0.526-0.42-1.064-0.795-1.631-1.135
			C163.399,286.544,99.112,150.43,119.146,17.571c0.661-4.395-0.529-8.623-3.356-11.907C112.784,2.169,108.105,0,103.585,0
			C97.322,0,92.83,3.997,91.856,10.429c-21.625,143.459,42.58,286.267,163.649,364.308c-2.812,3.93-4.985,8.262-6.478,12.838
			c-0.998,3.053-1.692,6.217-2.072,9.436c-0.339,2.877-0.389,5.799-0.217,8.734c-29.856,16.695-50.052,48.6-50.052,85.236
			c0,53.908,43.703,97.611,97.611,97.611c53.909,0,97.612-43.703,97.612-97.611c0-36.639-20.196-68.541-50.053-85.236
			c0.171-2.936,0.122-5.857-0.217-8.734c-0.38-3.219-1.074-6.383-2.072-9.436c-1.493-4.576-3.666-8.908-6.478-12.838
			C454.155,296.695,518.36,153.888,496.735,10.429C495.758,3.997,491.267,0,485.002,0z M278.106,390.973
			c1.68-2.014,3.862-3.625,6.319-4.773c2.693-1.258,5.722-1.961,8.844-1.961c0.318,0,0.636,0.01,1.089,0.023
			c3.464-0.168,6.833,0.549,9.792,1.938c2.46,1.154,4.645,2.76,6.325,4.777c0.902,1.082,1.823,2.496,2.53,4.211
			c-6.059-1.18-12.313-1.812-18.718-1.812s-12.656,0.637-18.718,1.812C276.283,393.467,277.204,392.057,278.106,390.973z
			 M372.346,490.98c0,43.035-35.013,78.051-78.052,78.051c-43.039,0-78.051-35.012-78.051-78.051
			c0-29.963,16.98-56.023,41.815-69.098c0.78-0.41,1.561-0.824,2.359-1.209c3.158-1.527,6.438-2.834,9.817-3.932
			c0.813-0.264,1.634-0.512,2.46-0.748c6.867-1.979,14.106-3.062,21.604-3.062c7.495,0,14.738,1.084,21.601,3.062
			c0.826,0.24,1.646,0.484,2.46,0.748c3.376,1.096,6.659,2.402,9.816,3.932c0.796,0.385,1.576,0.799,2.359,1.209
			C355.363,434.961,372.346,461.02,372.346,490.98z"/>
		<circle cx="294.294" cy="490.98" r="62.752" style="fill: #dddddd"/>
	</g>
</g>
<g>
</g>
<g>
</g>
<g>
</g>
<g>
</g>
<g>
</g>
<g>
</g>
<g>
</g>
<g>
</g>
<g>
</g>
<g>
</g>
<g>
</g>
<g>
</g>
<g>
</g>
<g>
</g>
<g>
</g>
</svg>
