<?xml version="1.0" encoding="iso-8859-1"?>
<!-- Generator: Adobe Illustrator 19.0.0, SVG Export Plug-In . SVG Version: 6.00 Build 0)  -->
<svg version="1.1" id="Capa_1" xmlns="http://www.w3.org/2000/svg" xmlns:xlink="http://www.w3.org/1999/xlink" x="0px" y="0px"
	 viewBox="0 0 496.016 496.016" style="enable-background:new 0 0 496.016 496.016;" xml:space="preserve">
<path style="fill:#FFDB6F;" d="M434.204,318.43c0,0,107.427-141.172-32.846-265.464c0,0-97.761-95.356-251.268-30.177
	c0,0-69.725,26.64-88.576,119.855c0,0-6.889,47.942,0,96.784c0,0-48.159,63.038-37.5,87.009c0,0,7.99,12.428,29.293,10.659v17.749
	c0,0-13.777,16.865,8.208,23.971c0,0-2.87,25.755,17.548,25.755c0,0-46.173,93.231,95.884,58.601c0,0,30.192-0.884,37.283,32.846
	h229.066C441.31,496.001,389.816,395.664,434.204,318.43z"/>
<path style="fill:#FFCB5A;" d="M255.004,30.422c-0.714,16.198,12.055,29.51,28.067,29.51l91.772,0.031
	c16.974,0,30.425,15.112,27.632,32.613c-2.203,13.824-15.22,23.397-29.215,23.397H341.16c-16.71,0.481-29.836,15.562-26.826,32.954
	c2.358,13.684,15.267,23.087,29.153,23.087h80.368c12.459,0,23.568,9.325,23.568,25.553c0,12.955-10.612,23.568-23.568,23.568
	h-65.691c-15.298,0-28.781,11.342-29.68,26.453c-0.714,16.198,12.055,29.51,28.067,29.51h33.792
	c13.514,0,24.033,11.745,22.544,25.181v0.357c0,13.653-11.171,24.824-24.824,24.824h-46.266c-15.298,0-28.781,11.326-29.68,26.624
	c-0.714,16.012,12.055,29.51,28.067,29.51h26.298c12.35,0,23.381,9.294,23.381,25.181v0.357c0,13.653-11.171,24.824-24.824,24.824
	h-27.726c-15.453,0-27.974,12.521-27.974,27.974s12.521,27.974,27.974,27.974h101.174c-10.085-22.544-42.263-105.379-4.267-171.489
	c0,0,107.427-141.172-32.846-265.464c0,0-37.64-36.662-102.85-48.966H284.53C269.402,3.984,255.904,15.31,255.004,30.422z"/>
<circle style="fill:#F3F3F3;" cx="298.912" cy="156.498" r="108.761"/>
<polygon style="fill:#3AA2EB;" points="364.774,85.439 257.704,133.195 285.492,152.65 233.05,227.558 340.121,179.802 
	312.333,160.346 "/>
<g>
</g>
<g>
</g>
<g>
</g>
<g>
</g>
<g>
</g>
<g>
</g>
<g>
</g>
<g>
</g>
<g>
</g>
<g>
</g>
<g>
</g>
<g>
</g>
<g>
</g>
<g>
</g>
<g>
</g>
</svg>
