<?xml version="1.0" encoding="iso-8859-1"?>
<!-- Generator: Adobe Illustrator 19.0.0, SVG Export Plug-In . SVG Version: 6.00 Build 0)  -->
<svg version="1.1" id="Layer_1" xmlns="http://www.w3.org/2000/svg" xmlns:xlink="http://www.w3.org/1999/xlink" x="0px" y="0px"
	 viewBox="0 0 511.999 511.999" style="enable-background:new 0 0 511.999 511.999;" xml:space="preserve">
<polygon style="fill:#9ED36A;" points="493.954,241.501 453.956,197.003 468.956,148.506 460.956,104.509 436.458,85.51 
	408.46,82.01 360.962,108.009 350.463,86.01 345.964,35.013 297.966,11.515 240.47,59.012 184.973,46.013 142.476,45.513 
	119.977,90.01 127.977,130.007 160.975,169.005 92.979,161.006 66.98,166.005 44.981,203.503 58.481,248.5 94.479,279.998 
	90.479,290.998 78.979,344.994 87.979,380.992 131.477,395.991 154.975,389.992 183.973,388.492 196.472,447.488 226.971,465.487 
	260.969,465.487 283.968,445.988 309.466,416.99 351.963,429.989 397.96,432.489 420.458,406.49 423.458,374.992 415.959,345.494 
	400.21,322.996 437.958,322.996 481.955,314.996 502.454,268.499 "/>
<path d="M460.425,195.863c0,0,58.043-93.854-28.186-121.43c-5.688-1.812-11.359-2.656-16.999-2.656
	c-18.171,0-35.981,8.812-52.653,22.436c6.313-27.483,4.375-53.075-13.155-71.183C333.214,6.25,317.277,0.016,302.575,0.016
	c-42.31,0-74.48,51.575-74.48,51.575s-30.904-19.092-62.449-19.108c-23.436,0-47.231,10.546-58.965,47.31
	c-7.687,23.999,1.921,47.794,19.764,69.636c-9.156-2.094-18.093-3.281-26.623-3.281c-17.077,0-32.482,4.75-44.56,16.437
	C-9.812,225.533,83.823,283.92,83.823,283.92s-58.028,93.869,28.201,121.43c5.687,1.813,11.359,2.672,16.983,2.672
	c8.625,0,17.155-2,25.514-5.531c-7.25,7-14.733,13.703-22.468,20.078c-36.56,30.139-78.542,53.23-124.758,68.636l0,0
	C3.063,492.626,0,496.61,0,501.328c0,5.891,4.781,10.656,10.656,10.656c1.188,0,2.312-0.188,3.375-0.547l0,0
	c48.903-16.296,93.323-40.779,132.023-72.762c11.28-9.343,22.092-19.326,32.389-29.904c-0.672,18.437,3.906,35.107,16.374,47.998
	c16.233,16.779,32.154,22.998,46.856,22.998c42.325,0,74.479-51.575,74.479-51.575s30.905,19.108,62.45,19.108
	c23.436,0,47.23-10.547,58.98-47.294c7.671-24.015-1.922-47.81-19.765-69.652c9.14,2.109,18.093,3.297,26.607,3.297
	c17.077,0,32.482-4.765,44.575-16.452C554.06,254.266,460.425,195.863,460.425,195.863z M126.992,86.276
	c3.969-12.437,9.703-21.327,16.999-26.436c5.796-4.046,12.874-6.015,21.655-6.015c24.561,0,50.341,15.374,51.263,15.937
	l17.983,11.25l11.312-18.124c0.063-0.109,6.968-10.968,18.093-21.749c9.343-9.031,23.545-19.78,38.278-19.78
	c10.469,0,20.78,5.39,31.529,16.499c9.484,9.796,12.469,24.28,9.156,44.247c-3.156,19.046-11.969,41.857-26.171,67.809
	c-16.702,30.529-36.981,58.059-48.872,73.292c-17.28-8.312-47.372-23.858-75.823-43.701c-24.374-17.015-42.498-33.607-53.856-49.31
	C126.602,113.681,122.821,99.322,126.992,86.276z M118.508,385.039c-16.14-5.172-25.983-13-30.045-23.936
	c-4.906-13.172-1.406-29.687,2.406-41.217c4.562-13.797,10.749-24.139,11.124-24.764l11.406-18.031l-18.265-11.248
	c-0.578-0.375-10.718-6.922-20.936-17.281c-8.531-8.64-18.999-21.89-20.452-35.873c-1.188-11.608,4.156-22.983,16.343-34.763
	c7.265-7.031,16.999-10.453,29.733-10.453c17.686,0,40.107,6.515,66.042,19.045c26.42,20.296,56.059,37.107,77.699,48.231
	c4.5,3.344,8.483,6.406,11.874,9.046c-1.859,3.859-4.078,8.359-6.625,13.343c-14.437,19.561-33.561,47.763-48.231,77.651
	c-26.202,33.67-51.138,51.888-71.574,51.888C125.43,386.68,121.993,386.148,118.508,385.039z M405.726,349.604
	c11.937,16.499,15.701,30.857,11.53,43.904c-3.969,12.436-9.687,21.342-16.999,26.436c-5.797,4.063-12.874,6.03-21.654,6.03
	c-24.53,0-50.279-15.358-51.248-15.937l-17.998-11.265l-11.297,18.14c-0.078,0.094-6.968,10.968-18.107,21.732
	c-9.328,9.031-23.546,19.796-38.279,19.796c-10.468,0-20.78-5.405-31.514-16.499c-9.484-9.812-12.484-24.279-9.171-44.263
	c3.171-19.046,11.983-41.856,26.186-67.808c16.702-30.515,36.967-58.06,48.856-73.293c3.875,1.859,8.374,4.078,13.358,6.625
	c19.562,14.451,47.763,33.576,77.651,48.246C383.883,324.559,396.851,337.339,405.726,349.604z M474.159,301.872
	c-7.266,7.03-16.984,10.452-29.733,10.452c-26.467,0-63.543-14.576-107.181-42.153c-20.171-12.749-37.482-25.624-48.419-34.17
	c1.859-3.875,4.093-8.406,6.64-13.39c14.438-19.562,33.545-47.747,48.217-77.62c26.201-33.67,51.137-51.888,71.558-51.888
	c3.578,0,7.015,0.547,10.499,1.656c16.156,5.156,25.983,12.983,30.061,23.92c4.906,13.171,1.391,29.701-2.422,41.232
	c-4.562,13.812-10.748,24.155-11.107,24.764l-11.266,17.983l18.14,11.312c0.094,0.063,9.983,6.343,20.28,16.608
	c8.78,8.781,19.561,22.217,21.061,36.435C491.72,278.654,486.376,290.045,474.159,301.872z"/>
<g>
</g>
<g>
</g>
<g>
</g>
<g>
</g>
<g>
</g>
<g>
</g>
<g>
</g>
<g>
</g>
<g>
</g>
<g>
</g>
<g>
</g>
<g>
</g>
<g>
</g>
<g>
</g>
<g>
</g>
</svg>
