<?xml version="1.0" encoding="iso-8859-1"?>
<!-- Generator: Adobe Illustrator 19.0.0, SVG Export Plug-In . SVG Version: 6.00 Build 0)  -->
<svg version="1.1" id="Capa_1" xmlns="http://www.w3.org/2000/svg" xmlns:xlink="http://www.w3.org/1999/xlink" x="0px" y="0px"
	 viewBox="0 0 512 512" style="enable-background:new 0 0 512 512;" xml:space="preserve">
<path style="fill:#C7C5CA;" d="M120.333,351.796l92.599,52.729l0,0c21.899-48.941,54.955-92.074,96.519-125.944l76.247-62.134
	c53.873-43.901,93.158-103.115,112.664-169.817l4.869-16.651l-8.05-13.163L120.333,351.796z"/>
<g>
	<path style="fill:#E0E3E6;" d="M465.369,13.636C398.667,33.142,339.453,72.427,295.553,126.3l-62.134,76.247
		c-33.87,41.564-77.003,74.62-125.944,96.519l0,0l29.065,76.393L495.183,16.817l-13.163-8.05L465.369,13.636z"/>
	<polygon style="fill:#E0E3E6;" points="147.147,364.854 152.281,369.988 159.254,373.959 503.233,29.98 512,0 512,0 
		317.109,182.427 	"/>
</g>
<polygon style="fill:#F5F5F6;" points="482.02,8.767 136.54,354.247 147.147,364.854 512,0 "/>
<path style="fill:#BD7D50;" d="M8.842,503.158c11.789,11.789,30.902,11.789,42.691,0l94.298-94.298L127,351.796L8.842,503.158
	L8.842,503.158z"/>
<path style="fill:#DD975A;" d="M8.842,460.468c-11.789,11.789-11.789,30.902,0,42.691l0,0L136.54,375.46l-33.4-9.29L8.842,460.468z"
	/>
<path style="fill:#813900;" d="M124.485,387.515l54.124,54.124c10.918,10.918,28.619,10.918,39.537,0l15.95-15.95l-73.893-73.893
	H127L124.485,387.515z"/>
<path style="fill:#B45600;" d="M86.311,277.904l-15.951,15.95c-10.918,10.918-10.918,28.619,0,39.537l54.124,54.124l35.719-35.719
	L86.311,277.904z"/>
<g>
</g>
<g>
</g>
<g>
</g>
<g>
</g>
<g>
</g>
<g>
</g>
<g>
</g>
<g>
</g>
<g>
</g>
<g>
</g>
<g>
</g>
<g>
</g>
<g>
</g>
<g>
</g>
<g>
</g>
</svg>
